<svg viewBox="0 0 32 32" xml:space="preserve" xmlns="http://www.w3.org/2000/svg" enable-background="new 0 0 32 32"><g id="Anvil"><path d="M5.69 16.962c-.109 0-.212-.023-.319-.032.998 1.818 1.018 3.42.061 4.972h11.115c-.965-1.674-.964-3.266.003-4.94H5.69z" fill="#262829" class="fill-425158"></path><path d="M29 4.632h-6.35v7.17h1.18c3.4 0 6.17-2.77 6.17-6.17 0-.55-.45-1-1-1z" fill="#3c3d3d" class="fill-829299"></path><path d="M5.432 21.902H4.56A2.563 2.563 0 0 0 2 24.462v1.907a1 1 0 0 0 1 1h15.958a1 1 0 0 0 1-1v-1.907a2.563 2.563 0 0 0-2.56-2.56H5.432zM22.65 4.632H3c-.55 0-1 .45-1 1v7.65c0 1.921 1.491 3.483 3.371 3.648.107.009.21.032.319.032h13.27c2.03 0 3.69-1.65 3.69-3.68v-8.65z" fill="#000000" class="fill-8b9ca5"></path></g></svg>